<svg xmlns="http://www.w3.org/2000/svg" viewBox="0 0 760 480" width="760" height="480" font-family="Arial, sans-serif">
  <!-- Background -->
  <rect width="760" height="480" fill="#fff" stroke="#999" stroke-width="1"/>

  <!-- Header band -->
  <rect x="0" y="0" width="760" height="36" fill="#1a3a6b"/>
  <text x="380" y="24" text-anchor="middle" fill="white" font-size="14" font-weight="bold">W-2 Wage and Tax Statement</text>
  <text x="10" y="24" fill="#aac4f0" font-size="11">2024</text>
  <text x="720" y="24" fill="#aac4f0" font-size="11" text-anchor="end">OMB No. 1545-0008</text>

  <!-- Employer section -->
  <rect x="8" y="44" width="380" height="56" fill="#f0f4ff" stroke="#ccd6ee" stroke-width="0.5"/>
  <text x="14" y="56" fill="#555" font-size="8">a  Employer's name, address, and ZIP code</text>
  <text x="14" y="70" fill="#111" font-size="11" font-weight="bold">Meridian Group LLC</text>
  <text x="14" y="83" fill="#333" font-size="10">400 Market Street, Suite 1800</text>
  <text x="14" y="94" fill="#333" font-size="10">San Francisco, CA 94105</text>

  <!-- EIN -->
  <rect x="396" y="44" width="180" height="28" fill="#f0f4ff" stroke="#ccd6ee" stroke-width="0.5"/>
  <text x="402" y="55" fill="#555" font-size="8">b  Employer identification number (EIN)</text>
  <text x="402" y="68" fill="#111" font-size="12" font-weight="bold">47-1234567</text>

  <!-- SSN -->
  <rect x="584" y="44" width="168" height="28" fill="#f0f4ff" stroke="#ccd6ee" stroke-width="0.5"/>
  <text x="590" y="55" fill="#555" font-size="8">c  Employee's SSN</text>
  <text x="590" y="68" fill="#111" font-size="12" font-weight="bold">XXX-XX-6789</text>

  <!-- Employee name -->
  <rect x="396" y="72" width="356" height="28" fill="#f0f4ff" stroke="#ccd6ee" stroke-width="0.5"/>
  <text x="402" y="83" fill="#555" font-size="8">e  Employee's first name and initial / Last name</text>
  <text x="402" y="96" fill="#111" font-size="11" font-weight="bold">Alex R Johnson</text>

  <!-- Box 1 -->
  <rect x="8" y="108" width="188" height="30" fill="#fff" stroke="#999" stroke-width="0.5"/>
  <text x="14" y="118" fill="#555" font-size="7.5">1  Wages, tips, other comp.</text>
  <text x="14" y="133" fill="#111" font-size="13" font-weight="bold">87,500.00</text>

  <!-- Box 2 -->
  <rect x="196" y="108" width="188" height="30" fill="#fff" stroke="#999" stroke-width="0.5"/>
  <text x="202" y="118" fill="#555" font-size="7.5">2  Federal income tax withheld</text>
  <text x="202" y="133" fill="#111" font-size="13" font-weight="bold">12,450.00</text>

  <!-- Box 3 -->
  <rect x="384" y="108" width="184" height="30" fill="#fff" stroke="#999" stroke-width="0.5"/>
  <text x="390" y="118" fill="#555" font-size="7.5">3  Social security wages</text>
  <text x="390" y="133" fill="#111" font-size="13" font-weight="bold">87,500.00</text>

  <!-- Box 4 -->
  <rect x="568" y="108" width="184" height="30" fill="#fff" stroke="#999" stroke-width="0.5"/>
  <text x="574" y="118" fill="#555" font-size="7.5">4  Social security tax withheld</text>
  <text x="574" y="133" fill="#111" font-size="13" font-weight="bold">5,425.00</text>

  <!-- Box 5 -->
  <rect x="8" y="138" width="188" height="30" fill="#fff" stroke="#999" stroke-width="0.5"/>
  <text x="14" y="148" fill="#555" font-size="7.5">5  Medicare wages and tips</text>
  <text x="14" y="163" fill="#111" font-size="13" font-weight="bold">87,500.00</text>

  <!-- Box 6 -->
  <rect x="196" y="138" width="188" height="30" fill="#fff" stroke="#999" stroke-width="0.5"/>
  <text x="202" y="148" fill="#555" font-size="7.5">6  Medicare tax withheld</text>
  <text x="202" y="163" fill="#111" font-size="13" font-weight="bold">1,269.00</text>

  <!-- Box 7 -->
  <rect x="384" y="138" width="184" height="30" fill="#fff" stroke="#999" stroke-width="0.5"/>
  <text x="390" y="148" fill="#555" font-size="7.5">7  Social security tips</text>
  <text x="390" y="163" fill="#777" font-size="12">—</text>

  <!-- Box 8 -->
  <rect x="568" y="138" width="184" height="30" fill="#fff" stroke="#999" stroke-width="0.5"/>
  <text x="574" y="148" fill="#555" font-size="7.5">8  Allocated tips</text>
  <text x="574" y="163" fill="#777" font-size="12">—</text>

  <!-- Box 12 codes (row) -->
  <rect x="8" y="168" width="376" height="28" fill="#fffbe6" stroke="#e6d96b" stroke-width="0.5"/>
  <text x="14" y="178" fill="#555" font-size="7.5">12a  Code</text>
  <text x="80" y="178" fill="#333" font-size="8">DD</text>
  <text x="100" y="178" fill="#111" font-size="10" font-weight="bold">6,240.00</text>
  <text x="220" y="178" fill="#555" font-size="7.5">12b  Code</text>
  <text x="286" y="178" fill="#777" font-size="10">—</text>
  <text x="14" y="191" fill="#444" font-size="7.5">  (Cost of employer-sponsored health coverage)</text>

  <!-- Box 13 checkboxes -->
  <rect x="384" y="168" width="368" height="28" fill="#fff" stroke="#999" stroke-width="0.5"/>
  <text x="390" y="178" fill="#555" font-size="7.5">13</text>
  <rect x="408" y="170" width="8" height="8" fill="none" stroke="#555" stroke-width="0.8"/>
  <text x="420" y="179" fill="#444" font-size="7.5">Statutory employee</text>
  <rect x="490" y="170" width="8" height="8" fill="none" stroke="#555" stroke-width="0.8"/>
  <text x="502" y="179" fill="#444" font-size="7.5">Retirement plan</text>
  <rect x="568" y="170" width="8" height="8" fill="#1a3a6b" stroke="#555" stroke-width="0.8"/>
  <text x="580" y="179" fill="#444" font-size="7.5">✓ 401(k)</text>

  <!-- State section -->
  <rect x="8" y="204" width="90" height="30" fill="#f5f5ff" stroke="#ccc" stroke-width="0.5"/>
  <text x="14" y="213" fill="#555" font-size="7.5">15  State</text>
  <text x="14" y="228" fill="#111" font-size="13" font-weight="bold">CA</text>

  <rect x="98" y="204" width="160" height="30" fill="#f5f5ff" stroke="#ccc" stroke-width="0.5"/>
  <text x="104" y="213" fill="#555" font-size="7.5">Employer's state ID</text>
  <text x="104" y="228" fill="#111" font-size="11" font-weight="bold">94-7654321</text>

  <rect x="258" y="204" width="152" height="30" fill="#f5f5ff" stroke="#ccc" stroke-width="0.5"/>
  <text x="264" y="213" fill="#555" font-size="7.5">16  State wages, tips, etc.</text>
  <text x="264" y="228" fill="#111" font-size="13" font-weight="bold">87,500.00</text>

  <rect x="410" y="204" width="152" height="30" fill="#f5f5ff" stroke="#ccc" stroke-width="0.5"/>
  <text x="416" y="213" fill="#555" font-size="7.5">17  State income tax</text>
  <text x="416" y="228" fill="#111" font-size="13" font-weight="bold">5,906.00</text>

  <rect x="562" y="204" width="190" height="30" fill="#f5f5ff" stroke="#ccc" stroke-width="0.5"/>
  <text x="568" y="213" fill="#555" font-size="7.5">18  Local wages, tips, etc.</text>
  <text x="568" y="228" fill="#777" font-size="12">—</text>

  <!-- Divider -->
  <line x1="8" y1="242" x2="752" y2="242" stroke="#ccc" stroke-width="0.5" stroke-dasharray="4,3"/>

  <!-- Copy notice -->
  <text x="380" y="258" text-anchor="middle" fill="#888" font-size="9">Copy B — To Be Filed With Employee's FEDERAL Tax Return</text>
  <text x="380" y="270" text-anchor="middle" fill="#aaa" font-size="8">This information is being furnished to the Internal Revenue Service.</text>

  <!-- Fixture watermark -->
  <text x="380" y="310" text-anchor="middle" fill="#e8eef8" font-size="72" font-weight="bold" transform="rotate(-20, 380, 310)">DEMO</text>

  <!-- Bottom bar -->
  <rect x="0" y="460" width="760" height="20" fill="#f0f4ff"/>
  <text x="380" y="473" text-anchor="middle" fill="#6680aa" font-size="8">Tea Tax Demo Fixture · Meridian Group LLC · Tax Year 2024 · Not a real tax document</text>
</svg>
